<mxfile host="app.diagrams.net" agent="Mozilla/5.0 (Windows NT 10.0; Win64; x64) AppleWebKit/537.36 (KHTML, like Gecko) Chrome/140.0.0.0 Safari/537.36" version="28.2.5">
  <diagram name="MERN App Flow" id="0">
    <mxGraphModel dx="1511" dy="841" grid="1" gridSize="10" guides="1" tooltips="1" connect="1" arrows="1" fold="1" page="1" pageScale="1" pageWidth="1100" pageHeight="850" math="0" shadow="0">
      <root>
        <mxCell id="0" />
        <mxCell id="1" parent="0" />
        <mxCell id="Frontend" value="&lt;font style=&quot;font-size: 18px;&quot;&gt;React Frontend&lt;/font&gt;" style="rounded=1;whiteSpace=wrap;html=1;fillColor=#dae8fc;strokeColor=#6c8ebf;verticalAlign=top;" parent="1" vertex="1">
          <mxGeometry x="130" y="30" width="180" height="400" as="geometry" />
        </mxCell>
        <mxCell id="App.jsx" value="&lt;b&gt;App.jsx&lt;/b&gt;" style="rounded=1;whiteSpace=wrap;html=1;fillColor=#dae8fc;strokeColor=#6c8ebf;" parent="1" vertex="1">
          <mxGeometry x="150" y="100" width="140" height="40" as="geometry" />
        </mxCell>
        <mxCell id="pages/Employees.jsx" value="pages/Employees.jsx" style="rounded=1;whiteSpace=wrap;html=1;fillColor=#dae8fc;strokeColor=#6c8ebf;fontStyle=1" parent="1" vertex="1">
          <mxGeometry x="150" y="160" width="140" height="40" as="geometry" />
        </mxCell>
        <mxCell id="api/api.js" value="api/api.js" style="rounded=1;whiteSpace=wrap;html=1;fillColor=#dae8fc;strokeColor=#6c8ebf;fontStyle=1" parent="1" vertex="1">
          <mxGeometry x="150" y="220" width="140" height="40" as="geometry" />
        </mxCell>
        <mxCell id="TikBcTzr0SIGDK1ZdFjS-8" value="Actor" style="shape=umlActor;verticalLabelPosition=bottom;verticalAlign=top;html=1;outlineConnect=0;" vertex="1" parent="1">
          <mxGeometry x="10" y="60" width="30" height="60" as="geometry" />
        </mxCell>
        <mxCell id="TikBcTzr0SIGDK1ZdFjS-9" value="" style="group" vertex="1" connectable="0" parent="1">
          <mxGeometry x="425" y="40" width="180" height="400" as="geometry" />
        </mxCell>
        <mxCell id="Backend" value="&lt;font style=&quot;font-size: 18px;&quot;&gt;Express Backend&lt;/font&gt;" style="rounded=1;whiteSpace=wrap;html=1;fillColor=#ffe6cc;strokeColor=#d79b00;verticalAlign=top;" parent="TikBcTzr0SIGDK1ZdFjS-9" vertex="1">
          <mxGeometry width="180" height="400" as="geometry" />
        </mxCell>
        <mxCell id="server.js" value="&lt;b&gt;server.js&lt;/b&gt;&lt;div style=&quot;text-align: left;&quot;&gt;1. imports Express.&lt;/div&gt;&lt;div style=&quot;text-align: left;&quot;&gt;2. connects to DB&lt;/div&gt;" style="rounded=1;whiteSpace=wrap;html=1;fillColor=#dae8fc;strokeColor=#6c8ebf;" parent="TikBcTzr0SIGDK1ZdFjS-9" vertex="1">
          <mxGeometry x="20" y="50" width="140" height="60" as="geometry" />
        </mxCell>
        <mxCell id="routes/core/employees.js" value="route mounted:&lt;div&gt;&lt;span style=&quot;font-weight: normal;&quot;&gt;routes/core/employees.js&lt;/span&gt;&lt;/div&gt;&lt;div&gt;&lt;span style=&quot;font-weight: normal;&quot;&gt;routes/core/departments.js&lt;/span&gt;&lt;/div&gt;" style="rounded=1;whiteSpace=wrap;html=1;fillColor=#dae8fc;strokeColor=#6c8ebf;fontStyle=1" parent="TikBcTzr0SIGDK1ZdFjS-9" vertex="1">
          <mxGeometry x="20" y="140" width="140" height="70" as="geometry" />
        </mxCell>
        <mxCell id="models/Employee.js" value="models/Employee.js" style="rounded=1;whiteSpace=wrap;html=1;fillColor=#dae8fc;strokeColor=#6c8ebf;fontStyle=1" parent="TikBcTzr0SIGDK1ZdFjS-9" vertex="1">
          <mxGeometry x="20" y="280" width="140" height="40" as="geometry" />
        </mxCell>
        <UserObject label="Employee.find();" link="Employee.find();" id="TikBcTzr0SIGDK1ZdFjS-4">
          <mxCell style="shape=flexArrow;endArrow=classic;html=1;rounded=0;" edge="1" parent="TikBcTzr0SIGDK1ZdFjS-9" source="routes/core/employees.js">
            <mxGeometry width="50" height="50" relative="1" as="geometry">
              <mxPoint x="90" y="260" as="sourcePoint" />
              <mxPoint x="90" y="280.71067811865476" as="targetPoint" />
              <Array as="points">
                <mxPoint x="90" y="240" />
              </Array>
            </mxGeometry>
          </mxCell>
        </UserObject>
        <mxCell id="TikBcTzr0SIGDK1ZdFjS-10" value="" style="group" vertex="1" connectable="0" parent="1">
          <mxGeometry x="730" y="30" width="180" height="400" as="geometry" />
        </mxCell>
        <mxCell id="Database" value="&lt;span style=&quot;font-weight: 700;&quot;&gt;MongoDB&lt;/span&gt;" style="rounded=1;whiteSpace=wrap;html=1;fillColor=#d5e8d4;strokeColor=#82b366;verticalAlign=top;" parent="TikBcTzr0SIGDK1ZdFjS-10" vertex="1">
          <mxGeometry width="180" height="400" as="geometry" />
        </mxCell>
        <mxCell id="MongoDB" value="departments (collection)" style="rounded=1;whiteSpace=wrap;html=1;fillColor=#dae8fc;strokeColor=#6c8ebf;fontStyle=1" parent="TikBcTzr0SIGDK1ZdFjS-10" vertex="1">
          <mxGeometry x="25" y="220" width="145" height="30" as="geometry" />
        </mxCell>
        <mxCell id="employees (collection)" value="employees (collection)" style="rounded=1;whiteSpace=wrap;html=1;fillColor=#dae8fc;strokeColor=#6c8ebf;fontStyle=1" parent="TikBcTzr0SIGDK1ZdFjS-10" vertex="1">
          <mxGeometry x="25" y="125" width="140" height="30" as="geometry" />
        </mxCell>
        <mxCell id="TikBcTzr0SIGDK1ZdFjS-5" value="" style="endArrow=classic;html=1;rounded=0;entryX=0.016;entryY=0.384;entryDx=0;entryDy=0;entryPerimeter=0;" edge="1" parent="1" target="employees (collection)">
          <mxGeometry width="50" height="50" relative="1" as="geometry">
            <mxPoint x="500" y="280" as="sourcePoint" />
            <mxPoint x="450" y="280" as="targetPoint" />
          </mxGeometry>
        </mxCell>
        <mxCell id="TikBcTzr0SIGDK1ZdFjS-12" value="" style="endArrow=classic;html=1;rounded=0;" edge="1" parent="1" target="Backend">
          <mxGeometry width="50" height="50" relative="1" as="geometry">
            <mxPoint x="290" y="240" as="sourcePoint" />
            <mxPoint x="340" y="190" as="targetPoint" />
          </mxGeometry>
        </mxCell>
        <mxCell id="TikBcTzr0SIGDK1ZdFjS-13" style="edgeStyle=orthogonalEdgeStyle;rounded=0;orthogonalLoop=1;jettySize=auto;html=1;exitX=0.5;exitY=0.5;exitDx=0;exitDy=0;exitPerimeter=0;entryX=-0.019;entryY=0.369;entryDx=0;entryDy=0;entryPerimeter=0;" edge="1" parent="1" source="TikBcTzr0SIGDK1ZdFjS-8" target="Frontend">
          <mxGeometry relative="1" as="geometry" />
        </mxCell>
        <mxCell id="TikBcTzr0SIGDK1ZdFjS-14" value="&lt;span style=&quot;font-size: 11px; text-align: left; text-wrap-mode: nowrap; background-color: rgb(255, 255, 255);&quot;&gt;fetch(&quot;/api/employees&quot;)&lt;/span&gt;" style="text;html=1;align=center;verticalAlign=middle;whiteSpace=wrap;rounded=0;" vertex="1" parent="1">
          <mxGeometry x="320" y="210" width="60" height="30" as="geometry" />
        </mxCell>
        <mxCell id="TikBcTzr0SIGDK1ZdFjS-15" value="HTTP request:&lt;div&gt;(GET /api/employees)&lt;/div&gt;" style="text;html=1;align=center;verticalAlign=middle;whiteSpace=wrap;rounded=0;" vertex="1" parent="1">
          <mxGeometry x="10" y="160" width="120" height="30" as="geometry" />
        </mxCell>
        <UserObject label="App.jsx  →  api/api.js  →                      server.js  →  routes/core/employees.js  →  models/Employee.js  →  MongoDB" link="App.jsx  →  api/api.js  →  server.js  →  routes/core/employees.js  →  models/Employee.js  →  MongoDB" id="TikBcTzr0SIGDK1ZdFjS-17">
          <mxCell style="text;whiteSpace=wrap;" vertex="1" parent="1">
            <mxGeometry x="130" y="510" width="700" height="50" as="geometry" />
          </mxCell>
        </UserObject>
      </root>
    </mxGraphModel>
  </diagram>
</mxfile>
